:SAMPLES-PER-SECOND 30
:FRAME-RANGE 1-4244
:FULLY-SPECIFIED
:DEGREES
2123
root  11.6489 19.7546 -43.07 -135.246 -58.7319 -172.032
RightUpLeg  -44.098 -6.86859 -1.55701
RightLeg  108.438 4.0017 -9.65029
RightFoot  -15.5209 0.701318 21.8817
RightToes  -3.31784e-009 0 -3.6325e-017
Spine  36.298 -0.99228 2.09038
Spine1  -7.30583 0.134428 -5.08963
HEad  -42.8455 26.7196 -30.1843
LeftShoulder1  2.29303 -6.71335 -15.6666
LeftArm  -10.3084 -63.2298 -61.512
LeftForeArm  41.919 -4.95233 -12.3155
LeftHand  0.161355 6.08884 26.5642
RightShoulder  7.63561 42.4348 8.66463
RightArm  -35.4303 45.2349 10.2316
RightForeArm  14.5051 -7.33787 8.70013
RightHand  -1.12945 -0.570151 -26.8981
LeftUpLeg  -51.4938 5.11417 -0.873856
LeftLeg  108.078 2.39677 -7.32904
LeftFoot  -4.50331 0.933698 -15.1058
LeftToes  1.0277e-010 -6.71454e-011 3.04227e-011
2124
root  11.2797 19.7939 -43.2993 -136.613 -58.8404 -170.679
RightUpLeg  -48.8331 -6.51131 -0.159296
RightLeg  113.244 4.69668 -9.03769
RightFoot  -17.4984 1.07215 21.9113
RightToes  -3.31784e-009 0 -3.6325e-017
Spine  36.8868 -0.891843 2.48146
Spine1  -7.86969 0.238318 -3.77745
HEad  -43.097 26.9055 -30.9085
LeftShoulder1  2.14569 -6.75937 -13.9832
LeftArm  -14.7761 -67.4381 -57.6463
LeftForeArm  41.801 -5.23051 -11.7324
LeftHand  0.0149688 5.46857 25.0498
RightShoulder  8.31091 42.9024 10.0456
RightArm  -34.5707 45.2241 10.8128
RightForeArm  16.1762 -7.35923 8.84341
RightHand  -1.17973 -0.49421 -27.6362
LeftUpLeg  -49.9464 5.58674 0.108897
LeftLeg  106.871 2.46811 -8.02742
LeftFoot  -4.27624 0.950171 -14.9086
LeftToes  1.0277e-010 -6.71454e-011 3.04227e-011
2125
root  10.9121 19.8064 -43.5624 -137.803 -59.1268 -169.594
RightUpLeg  -53.3971 -5.50811 1.04581
RightLeg  117.29 4.84194 -7.82266
RightFoot  -20.1837 1.53787 21.4428
RightToes  -3.31784e-009 0 -3.6325e-017
Spine  37.3627 -0.701377 2.55846
Spine1  -8.33494 0.31598 -2.10899
HEad  -43.8109 27.0318 -31.8862
LeftShoulder1  1.91801 -6.5772 -11.9082
LeftArm  -21.152 -71.6624 -52.4558
LeftForeArm  41.3347 -3.98406 -11.0983
LeftHand  -0.0479627 5.17215 23.3289
RightShoulder  8.91555 43.3817 11.2236
RightArm  -33.0274 45.0568 11.3492
RightForeArm  17.6211 -7.43281 9.32163
RightHand  -1.18479 -0.588324 -28.2725
LeftUpLeg  -48.257 6.16632 1.21179
LeftLeg  105.603 2.49947 -8.72811
LeftFoot  -4.35931 0.938983 -14.8959
LeftToes  1.0277e-010 -6.71454e-011 3.04227e-011
2126
root  10.5172 19.8132 -43.8545 -138.659 -60.261 -168.978
RightUpLeg  -57.4432 -4.58862 2.24067
RightLeg  120.211 5.78888 -8.41039
RightFoot  -22.3018 1.85643 20.7303
RightToes  -3.31784e-009 0 -3.6325e-017
Spine  37.8724 -0.906725 3.18072
Spine1  -8.86739 0.129432 -0.272678
HEad  -44.2283 27.0625 -32.2793
LeftShoulder1  1.65978 -6.47688 -9.24428
LeftArm  -28.0103 -75.4906 -45.5897
LeftForeArm  39.0759 -1.77543 -10.1803
LeftHand  -0.0975996 4.89808 21.661
RightShoulder  9.66162 43.6496 12.7993
RightArm  -31.8833 44.658 11.9259
RightForeArm  18.9114 -7.47264 9.59833
RightHand  -1.24433 -0.496034 -29.1027
LeftUpLeg  -46.6259 5.67283 2.43103
LeftLeg  104.361 2.24833 -8.5758
LeftFoot  -4.30861 0.955892 -15.0653
LeftToes  1.0277e-010 -6.71454e-011 3.04227e-011
2127
root  10.0912 19.7969 -44.1981 -139.197 -61.6185 -168.813
RightUpLeg  -60.5103 -3.3652 2.80385
RightLeg  121.931 6.1912 -8.44547
RightFoot  -24.4455 2.46975 22.6856
RightToes  -3.31784e-009 0 -3.6325e-017
Spine  38.1944 -1.17381 3.66391
Spine1  -9.1306 -0.126489 1.39939
HEad  -44.5554 27.176 -32.562
LeftShoulder1  1.41014 -6.40128 -6.56268
LeftArm  -35.7753 -78.5829 -37.4495
LeftForeArm  36.7431 1.05803 -9.12353
LeftHand  -0.163151 4.47009 19.6928
RightShoulder  10.5669 43.8215 14.7597
RightArm  -31.001 44.31 12.3132
RightForeArm  20.6552 -7.49021 9.76026
RightHand  -1.24475 -0.542327 -29.3782
LeftUpLeg  -44.81 5.25676 3.51952
LeftLeg  102.993 1.83193 -7.85724
LeftFoot  -4.27254 0.983689 -15.4356
LeftToes  1.0277e-010 -6.71454e-011 3.04227e-011
2128
root  9.64243 19.7463 -44.5663 -139.249 -63.2793 -169.338
RightUpLeg  -62.5096 -2.47294 3.06939
RightLeg  122.403 6.63096 -8.91731
RightFoot  -25.1654 2.74525 23.7521
RightToes  -3.31784e-009 0 -3.6325e-017
Spine  38.3126 -1.48092 3.96122
Spine1  -8.88604 -0.528836 3.29975
HEad  -44.8949 27.1463 -32.8027
LeftShoulder1  1.25129 -6.48195 -4.64047
LeftArm  -45.2795 -81.1615 -26.118
LeftForeArm  32.218 4.16968 -8.84973
LeftHand  -0.128573 4.62901 18.3335
RightShoulder  11.1824 43.6172 16.263
RightArm  -29.6743 43.7293 12.9324
RightForeArm  21.5006 -7.54026 10.1053
RightHand  -1.27897 -0.516783 -30.0017
LeftUpLeg  -42.8154 4.51673 4.5096
LeftLeg  101.534 1.37861 -6.86859
LeftFoot  -4.43565 0.99001 -15.884
LeftToes  1.0277e-010 -6.71454e-011 3.04227e-011
2129
root  9.17987 19.6353 -44.9628 -137.992 -64.9058 -171.553
RightUpLeg  -62.9283 -2.46497 3.19426
RightLeg  122.981 7.21814 -9.53612
RightFoot  -18.827 1.11359 18.8318
RightToes  -3.31784e-009 0 -3.6325e-017
Spine  38.4662 -1.66556 3.5636
Spine1  -8.45645 -0.984821 4.96079
HEad  -45.1088 26.8495 -32.8766
LeftShoulder1  1.20674 -6.70188 -3.84204
LeftArm  -53.4384 -83.3225 -16.0449
LeftForeArm  28.6627 7.32115 -9.11214
LeftHand  -0.14346 4.47128 16.9647
RightShoulder  11.0772 42.7788 16.5169
RightArm  -28.7453 43.2718 14.7545
RightForeArm  22.3528 -7.52413 10.039
RightHand  -1.3149 -0.501626 -30.7169
LeftUpLeg  -40.4253 3.41041 4.88862
LeftLeg  99.8802 0.971904 -5.93147
LeftFoot  -4.45674 0.967459 -15.5615
LeftToes  1.0277e-010 -6.71454e-011 3.04227e-011
2130
root  8.6545 19.499 -45.3891 -135.216 -66.2318 -174.785
RightUpLeg  -61.9821 -2.93656 2.70473
RightLeg  123.191 7.54528 -9.90805
RightFoot  -18.6688 1.26765 21.5544
RightToes  -3.31784e-009 0 -3.6325e-017
Spine  37.4427 -1.7703 2.86258
Spine1  -7.13017 -1.60396 6.54907
HEad  -45.5802 26.2398 -33.3564
LeftShoulder1  1.19126 -6.86352 -3.46441
LeftArm  -55.0361 -84.9071 -12.5384
LeftForeArm  25.4569 7.5719 -10.4733
LeftHand  -0.122131 4.54843 15.3724
RightShoulder  11.0822 42.2299 16.8588
RightArm  -27.4221 42.5777 15.9025
RightForeArm  22.2098 -7.5769 10.3649
RightHand  -1.29513 -0.691969 -31.4438
LeftUpLeg  -38.4181 2.12056 4.7841
LeftLeg  97.8985 0.601403 -5.02316
LeftFoot  -4.47605 0.944422 -15.225
LeftToes  1.0277e-010 -6.71454e-011 3.04227e-011
